<svg xmlns="http://www.w3.org/2000/svg" viewBox="0 0 1188.5 209.16"><defs><style>.cls-1{fill:#fff;}</style></defs><title>16_ECLAIRAGE©_logo_principal_blanc_svg</title><g id="Logo_principal" data-name="Logo principal"><g id="Blanc"><path class="cls-1" d="M398.06,202,385,207.5a49.29,49.29,0,1,0,0,41.59l13.1,5.8a63.51,63.51,0,0,1-121.25-26.47c0-35,28.49-63.77,63.53-63.77A63.28,63.28,0,0,1,398.06,202Z" transform="translate(-112.65 -123.63)"/><path class="cls-1" d="M433.67,123.81V292H419.3V123.81Z" transform="translate(-112.65 -123.63)"/><path class="cls-1" d="M582.21,228.42V292H567.59V268.76a63.58,63.58,0,0,1-112.68-40.34c0-35,28.48-63.77,63.52-63.77A64,64,0,0,1,582.21,228.42Zm-112.93,0a49.16,49.16,0,1,0,49.15-49.15A49.06,49.06,0,0,0,469.28,228.42Z" transform="translate(-112.65 -123.63)"/><path class="cls-1" d="M617.55,149c-7.56,0-12.6-5-12.6-12.6a12.64,12.64,0,0,1,12.6-12.61c7.06.25,12.6,5.29,12.6,12.61S625.62,149,617.55,149Zm7.06,15.63V292H610.24V164.65Z" transform="translate(-112.65 -123.63)"/><path class="cls-1" d="M697.5,179.52a17.67,17.67,0,0,0-5-.76c-10.33,0-18.15,8.83-18.15,18.91-.25,1.26-.25,66-.25,94.28H659.68V199.69c0-19.41,14.12-34.79,33.28-34.79,2.77,0,4.79.25,7.81.5Z" transform="translate(-112.65 -123.63)"/><path class="cls-1" d="M839,228.42H726a49.09,49.09,0,0,0,93.77,20.42l13.11,6a63.51,63.51,0,0,1-121.25-26.47c0-35,28.48-63.77,63.52-63.77A64,64,0,0,1,839,228.42ZM728.29,213.8h94a49.48,49.48,0,0,0-47.14-34.53A48.94,48.94,0,0,0,728.29,213.8Z" transform="translate(-112.65 -123.63)"/><path class="cls-1" d="M861.58,125.3a11.24,11.24,0,0,1,3.76,6.9,24.56,24.56,0,0,1-.58,9.59,38.35,38.35,0,0,1-3.9,10.57c-1.73,3.08-3.52,4.81-5.37,5.17a4.13,4.13,0,0,1-2.87-.41,2.84,2.84,0,0,1-1.59-2,2.63,2.63,0,0,1,0-1.44q1.86-6.77,1-11.17a24.14,24.14,0,0,0-2-5.35c-.17-.31-.46-1-.88-2.05a17.12,17.12,0,0,1-.93-3.08,6,6,0,0,1,1.35-5.29,9,9,0,0,1,5.32-3A7.86,7.86,0,0,1,861.58,125.3Z" transform="translate(-112.65 -123.63)"/><path class="cls-1" d="M1008.61,228.42V292H994V268.76a63.58,63.58,0,0,1-112.68-40.34c0-35,28.48-63.77,63.52-63.77A64,64,0,0,1,1008.61,228.42Zm-112.93,0a49.16,49.16,0,1,0,49.15-49.15A49.06,49.06,0,0,0,895.68,228.42Z" transform="translate(-112.65 -123.63)"/><path class="cls-1" d="M1154.88,228.42v40.84c0,35-27.22,63.52-62.26,63.52h-15.88V318.42h14.37c27.73,0,49.15-22.19,49.15-49.66a63.58,63.58,0,0,1-112.68-40.34c0-38.31,26-62.51,63.53-63.77A64,64,0,0,1,1154.88,228.42Zm-112.93,0a49.16,49.16,0,1,0,49.16-49.15A49.06,49.06,0,0,0,1042,228.42Z" transform="translate(-112.65 -123.63)"/><path class="cls-1" d="M1301.16,228.42H1188.23A49.09,49.09,0,0,0,1282,248.84l13.11,6a63.51,63.51,0,0,1-121.25-26.47c0-35,28.48-63.77,63.52-63.77A64,64,0,0,1,1301.16,228.42ZM1190.49,213.8h94a49.49,49.49,0,0,0-47.14-34.53A49,49,0,0,0,1190.49,213.8Z" transform="translate(-112.65 -123.63)"/><path class="cls-1" d="M231.76,264.23l8.66,17.11a130.18,130.18,0,0,1-23.88,8c-21.39,5-42.32,3.66-62.75-4.63-22.09-9-34.65-25.81-39.57-48.56-4.35-20.1.26-38.13,15.12-52.69,14.72-14.4,32.72-20.05,53.17-17.95,10.06,1,19.53,3.83,27.9,9.67a48,48,0,0,1,16.14,18.91c6.36,13.3,3.29,27.87-8.08,37.86-16.7,14.67-37.25,12.68-53.06,3.17a4.72,4.72,0,0,1-.57-.62c3.43-5,6.86-10,10.41-15.19,1.38.92,2.66,1.81,4,2.64,12.15,7.63,24.51,5.31,32.88-3.88,5-5.53,5.48-12,2.37-18.54-5.39-11.4-14.75-17.58-27.07-18.95-21.74-2.41-39.66,5.2-52.69,22.62-19.32,25.81-4.49,58.31,19.83,68.37,25.23,10.44,49.53,7.93,73.13-5C229,265.83,230.27,265.08,231.76,264.23Z" transform="translate(-112.65 -123.63)"/><path class="cls-1" d="M200.36,198.28l-8.23,12c-1.42-.9-2.78-1.84-4.22-2.64a29.28,29.28,0,0,0-12.78-3.76,25.47,25.47,0,0,0-15.42,4.4,23.07,23.07,0,0,0-7.62,7.6A18,18,0,0,0,150.56,231a30.72,30.72,0,0,0,5.53,9.85,34.26,34.26,0,0,0,20.13,12.18A54.2,54.2,0,0,0,189,254.21c15-.31,27.92-6,39-16a49.34,49.34,0,0,0,13.52-20.39,43.19,43.19,0,0,0,2.48-12.92,46.24,46.24,0,0,0-5.42-23.16,50,50,0,0,0-5.77-8.94,48.18,48.18,0,0,0-15.39-12.32,74.52,74.52,0,0,0-15-5.51,76.21,76.21,0,0,0-21.83-2.64,87.07,87.07,0,0,0-33.74,7.92,92.17,92.17,0,0,0-9.4,4.91l-.39.22c-2.26-4.46-4.5-8.9-6.76-13.39l.49-.22a128.17,128.17,0,0,1,23.58-7.37,109.34,109.34,0,0,1,19.17-2.3,96.56,96.56,0,0,1,14,.6,94.52,94.52,0,0,1,18.42,4.11A92.65,92.65,0,0,1,219,152.05,57.75,57.75,0,0,1,244.54,177a74.27,74.27,0,0,1,7.56,21,58.11,58.11,0,0,1,.81,16.7,52.41,52.41,0,0,1-8.71,24.5,57,57,0,0,1-18.09,17,61.47,61.47,0,0,1-35.75,9.12,71,71,0,0,1-13.84-1.88,54.1,54.1,0,0,1-15.94-6.51A46.26,46.26,0,0,1,149.35,247a40.16,40.16,0,0,1-7.46-12.67c-3.59-10.54-1.89-20.2,5.3-28.69a38.77,38.77,0,0,1,22.26-13.13,38.05,38.05,0,0,1,12.37-.42,49.2,49.2,0,0,1,18,5.89l.36.21A.83.83,0,0,1,200.36,198.28Z" transform="translate(-112.65 -123.63)"/></g></g></svg>